{
  "accessors": [
    {
      "bufferView": 2,
      "componentType": 5126,
      "count": 7624,
      "max": [
        1.2122652530670166,
        0.2385464757680893,
        2.0317161083221436
      ],
      "min": [
        -1.3128339052200317,
        -0.42370784282684326,
        -1.7209376096725464
      ],
      "type": "VEC3"
    },
    {
      "bufferView": 2,
      "byteOffset": 91488,
      "componentType": 5126,
      "count": 7624,
      "max": [
        0.9989029765129089,
        0.9999517202377319,
        0.9995920658111572
      ],
      "min": [
        -0.999466061592102,
        -0.9903916120529175,
        -0.9936084151268005
      ],
      "type": "VEC3"
    },
    {
      "bufferView": 3,
      "componentType": 5126,
      "count": 7624,
      "max": [
        0.9976257085800171,
        0.9999093413352966,
        0.9792285561561584,
        1.0
      ],
      "min": [
        -0.9291536211967468,
        -0.998281717300415,
        -0.9999796748161316,
        1.0
      ],
      "type": "VEC4"
    },
    {
      "bufferView": 1,
      "componentType": 5126,
      "count": 7624,
      "max": [
        0.8947264552116394,
        0.9988314509391785
      ],
      "min": [
        0.0001705885078990832,
        0.0015700958902016282
      ],
      "type": "VEC2"
    },
    {
      "bufferView": 1,
      "byteOffset": 60992,
      "componentType": 5126,
      "count": 7624,
      "max": [
        0.8947264552116394,
        0.9988314509391785
      ],
      "min": [
        0.0001705885078990832,
        0.0015700958902016282
      ],
      "type": "VEC2"
    },
    {
      "bufferView": 1,
      "byteOffset": 121984,
      "componentType": 5126,
      "count": 7624,
      "max": [
        0.8947264552116394,
        0.9988314509391785
      ],
      "min": [
        0.0001705885078990832,
        0.0015700958902016282
      ],
      "type": "VEC2"
    },
    {
      "bufferView": 1,
      "byteOffset": 182976,
      "componentType": 5126,
      "count": 7624,
      "max": [
        0.8947264552116394,
        0.9988314509391785
      ],
      "min": [
        0.0001705885078990832,
        0.0015700958902016282
      ],
      "type": "VEC2"
    },
    {
      "bufferView": 0,
      "componentType": 5125,
      "count": 24192,
      "type": "SCALAR"
    }
  ],
  "asset": {
    "extras": {
      "author": "ssavish274 (https://sketchfab.com/ssavish274)",
      "license": "CC-BY-4.0 (http://creativecommons.org/licenses/by/4.0/)",
      "source": "https://sketchfab.com/3d-models/human-ear-model-e1f0f4b6fae54d59bdc3c6b2534eb411",
      "title": "Human Ear Model"
    },
    "generator": "Sketchfab-12.66.0",
    "version": "2.0"
  },
  "bufferViews": [
    {
      "buffer": 0,
      "byteLength": 96768,
      "name": "floatBufferViews",
      "target": 34963
    },
    {
      "buffer": 0,
      "byteLength": 243968,
      "byteOffset": 96768,
      "byteStride": 8,
      "name": "floatBufferViews",
      "target": 34962
    },
    {
      "buffer": 0,
      "byteLength": 182976,
      "byteOffset": 340736,
      "byteStride": 12,
      "name": "floatBufferViews",
      "target": 34962
    },
    {
      "buffer": 0,
      "byteLength": 121984,
      "byteOffset": 523712,
      "byteStride": 16,
      "name": "floatBufferViews",
      "target": 34962
    }
  ],
  "buffers": [
    {
      "byteLength": 645696,
      "uri": "scene.bin"
    }
  ],
  "images": [
    {
      "uri": "textures/Material.002_baseColor.png"
    },
    {
      "uri": "textures/Material.002_metallicRoughness.png"
    },
    {
      "uri": "textures/Material.002_normal.png"
    }
  ],
  "materials": [
    {
      "doubleSided": true,
      "name": "Material.002",
      "normalTexture": {
        "index": 2
      },
      "occlusionTexture": {
        "index": 1,
        "strength": 0.3421997458
      },
      "pbrMetallicRoughness": {
        "baseColorTexture": {
          "index": 0
        },
        "metallicFactor": 0.0,
        "metallicRoughnessTexture": {
          "index": 1
        }
      }
    }
  ],
  "meshes": [
    {
      "name": "Object_0",
      "primitives": [
        {
          "attributes": {
            "NORMAL": 1,
            "POSITION": 0,
            "TANGENT": 2,
            "TEXCOORD_0": 3,
            "TEXCOORD_1": 4,
            "TEXCOORD_2": 5,
            "TEXCOORD_3": 6
          },
          "indices": 7,
          "material": 0,
          "mode": 4
        }
      ]
    }
  ],
  "nodes": [
    {
      "children": [
        1
      ],
      "matrix": [
        1.0,
        0.0,
        0.0,
        0.0,
        0.0,
        2.220446049250313e-16,
        -1.0,
        0.0,
        0.0,
        1.0,
        2.220446049250313e-16,
        0.0,
        0.0,
        0.0,
        0.0,
        1.0
      ],
      "name": "Sketchfab_model"
    },
    {
      "children": [
        2
      ],
      "name": "root"
    },
    {
      "children": [
        3
      ],
      "matrix": [
        1.0,
        0.0,
        0.0,
        0.0,
        0.0,
        2.220446049250313e-16,
        1.0,
        0.0,
        0.0,
        -1.0,
        2.220446049250313e-16,
        0.0,
        0.0,
        0.0,
        0.0,
        1.0
      ],
      "name": "GLTF_SceneRootNode"
    },
    {
      "children": [
        4
      ],
      "matrix": [
        1.0,
        0.0,
        0.0,
        0.0,
        0.0,
        -1.685873969314855e-07,
        0.9999999999999858,
        0.0,
        0.0,
        -0.9999999999999858,
        -1.685873969314855e-07,
        0.0,
        -0.37623023986816406,
        2.020326614379883,
        -0.1436300277709961,
        1.0
      ],
      "name": "earnewmeshh_2"
    },
    {
      "mesh": 0,
      "name": "Object_4"
    }
  ],
  "samplers": [
    {
      "magFilter": 9729,
      "minFilter": 9987,
      "wrapS": 10497,
      "wrapT": 10497
    }
  ],
  "scene": 0,
  "scenes": [
    {
      "name": "Sketchfab_Scene",
      "nodes": [
        0
      ]
    }
  ],
  "textures": [
    {
      "sampler": 0,
      "source": 0
    },
    {
      "sampler": 0,
      "source": 1
    },
    {
      "sampler": 0,
      "source": 2
    }
  ]
}
